<?xml version="1.0" encoding="UTF-8"?>
<svg xmlns="http://www.w3.org/2000/svg" xmlns:xlink="http://www.w3.org/1999/xlink" width="192px" height="192px" viewBox="0 0 192 192" version="1.1">
<g id="surface1">
<path style=" stroke:none;fill-rule:nonzero;fill:rgb(98.431373%,73.725492%,1.568628%);fill-opacity:1;" d="M 53.191406 146.53125 L 30.53125 169.191406 C 28.78125 170.929688 25.960938 170.929688 24.210938 169.191406 L 22.808594 167.789062 C 21.070312 166.039062 21.070312 163.21875 22.808594 161.46875 L 45.46875 138.808594 C 47.21875 137.070312 50.050781 137.070312 51.800781 138.808594 L 53.199219 140.210938 C 54.949219 141.949219 54.949219 144.78125 53.199219 146.519531 Z M 53.191406 146.53125 "/>
<path style=" stroke:none;fill-rule:nonzero;fill:rgb(25.882354%,52.156866%,95.686275%);fill-opacity:1;" d="M 114 156 L 143 156 C 159.011719 156 171.988281 143.019531 172 127.011719 L 172 49 C 172 32.988281 159.019531 20.011719 143.011719 20 C 127 20 114.011719 32.96875 114.011719 48.980469 L 114.011719 156 Z M 114 156 "/>
<path style=" stroke:none;fill-rule:nonzero;fill:rgb(98.431373%,73.725492%,1.568628%);fill-opacity:1;" d="M 66 156 C 82.011719 156 95 143.03125 95 127.019531 L 95 127 C 95 110.988281 82.019531 98.011719 66.011719 98 L 66 98 C 49.988281 98 37 110.96875 37 126.980469 C 37 126.980469 37 126.980469 37 126.988281 C 37 143 49.96875 155.988281 65.980469 155.988281 L 66 155.988281 Z M 66 156 "/>
<path style=" stroke:none;fill-rule:nonzero;fill:rgb(20.392157%,65.882355%,32.549021%);fill-opacity:1;" d="M 134.261719 156 L 106 156 C 89.988281 156 77.011719 143.019531 77 127.011719 L 77 89 C 77 72.988281 89.96875 60 105.980469 60 L 105.988281 60 C 122 60 134.988281 72.96875 134.988281 88.980469 L 134.988281 155.261719 C 134.988281 155.671875 134.660156 156 134.25 156 Z M 134.261719 156 "/>
<path style=" stroke:none;fill-rule:nonzero;fill:rgb(9.803922%,40.392157%,82.352942%);fill-opacity:1;" d="M 135 155.261719 L 135 89 C 135 76.070312 126.429688 64.699219 114 61.128906 L 114 156 L 134.261719 156 C 134.671875 156 135 155.671875 135 155.269531 Z M 135 155.261719 "/>
<path style=" stroke:none;fill-rule:nonzero;fill:rgb(91.764706%,26.274511%,20.784314%);fill-opacity:1;" d="M 95 127.558594 C 95 115.789062 87.890625 105.191406 77 100.730469 L 77 127.558594 C 77 135.820312 80.460938 143.269531 86 148.550781 C 91.75 143.078125 95.011719 135.488281 95 127.558594 Z M 95 127.558594 "/>
</g>
</svg>
